HIERARCHY
ROOT Hips
{
	OFFSET 0.000000 0.000000 0.000000
	CHANNELS 6 Xposition Yposition Zposition Zrotation Yrotation Xrotation 
	JOINT LHipJoint
	{
		OFFSET 0.000000 0.000000 0.000000
		CHANNELS 3 Zrotation Yrotation Xrotation
		JOINT LeftUpLeg
		{
			OFFSET 1.363060 -1.794630 0.839290
			CHANNELS 3 Zrotation Yrotation Xrotation
			JOINT LeftLeg
			{
				OFFSET 2.448110 -6.726130 0.000000
				CHANNELS 3 Zrotation Yrotation Xrotation
				JOINT LeftFoot
				{
					OFFSET 2.562200 -7.039590 0.000000
					CHANNELS 3 Zrotation Yrotation Xrotation
					JOINT LeftToeBase
					{
						OFFSET 0.157640 -0.433110 2.322550
						CHANNELS 3 Zrotation Yrotation Xrotation
						End Site
						{
							OFFSET 0.000000 0.000000 0.000000
						}
					}
				}
			}
		}
	}
	JOINT RHipJoint
	{
		OFFSET 0.000000 0.000000 0.000000
		CHANNELS 3 Zrotation Yrotation Xrotation
		JOINT RightUpLeg
		{
			OFFSET -1.305520 -1.794630 0.839290
			CHANNELS 3 Zrotation Yrotation Xrotation
			JOINT RightLeg
			{
				OFFSET -2.542530 -6.985550 0.000000
				CHANNELS 3 Zrotation Yrotation Xrotation
				JOINT RightFoot
				{
					OFFSET -2.568260 -7.056230 0.000000
					CHANNELS 3 Zrotation Yrotation Xrotation
					JOINT RightToeBase
					{
						OFFSET -0.164730 -0.452590 2.363150
						CHANNELS 3 Zrotation Yrotation Xrotation
						End Site
						{
							OFFSET 0.000000 0.000000 0.000000
						}
					}
				}
			}
		}
	}
	JOINT LowerBack
	{
		OFFSET 0.000000 0.000000 0.000000
		CHANNELS 3 Zrotation Yrotation Xrotation
		JOINT Spine
		{
			OFFSET 0.028270 2.035590 -0.193380
			CHANNELS 3 Zrotation Yrotation Xrotation
			JOINT Spine1
			{
				OFFSET 0.056720 2.048850 -0.042750
				CHANNELS 3 Zrotation Yrotation Xrotation
				JOINT Neck
				{
					OFFSET 0.000000 0.000000 0.000000
					CHANNELS 3 Zrotation Yrotation Xrotation
					JOINT Neck1
					{
						OFFSET -0.054170 1.746240 0.172020
						CHANNELS 3 Zrotation Yrotation Xrotation
						JOINT Head
						{
							OFFSET 0.104070 1.761360 -0.123970
							CHANNELS 3 Zrotation Yrotation Xrotation
							End Site
							{
								OFFSET 0.000000 0.000000 0.000000
							}
						}
					}
				}
				JOINT LeftShoulder
				{
					OFFSET 0.000000 0.000000 0.000000
					CHANNELS 3 Zrotation Yrotation Xrotation
					JOINT LeftArm
					{
						OFFSET 3.362410 1.200890 -0.311210
						CHANNELS 3 Zrotation Yrotation Xrotation
						JOINT LeftForeArm
						{
							OFFSET 4.983000 -0.000000 -0.000000
							CHANNELS 3 Zrotation Yrotation Xrotation
							JOINT LeftHand
							{
								OFFSET 3.483560 -0.000000 -0.000000
								CHANNELS 3 Zrotation Yrotation Xrotation
								JOINT LeftFingerBase
								{
									OFFSET 0.000000 0.000000 0.000000
									CHANNELS 3 Zrotation Yrotation Xrotation
									JOINT LeftHandIndex1
									{
										OFFSET 0.715260 -0.000000 -0.000000
										CHANNELS 3 Zrotation Yrotation Xrotation
										End Site
										{
											OFFSET 0.000000 0.000000 0.000000
										}
									}
								}
								JOINT LThumb
								{
									OFFSET 0.000000 0.000000 0.000000
									CHANNELS 3 Zrotation Yrotation Xrotation
									End Site
									{
										OFFSET 0.000000 0.000000 0.000000
									}
								}
							}
						}
					}
				}
				JOINT RightShoulder
				{
					OFFSET 0.000000 0.000000 0.000000
					CHANNELS 3 Zrotation Yrotation Xrotation
					JOINT RightArm
					{
						OFFSET -3.136600 1.374050 -0.404650
						CHANNELS 3 Zrotation Yrotation Xrotation
						JOINT RightForeArm
						{
							OFFSET -5.241900 -0.000000 -0.000000
							CHANNELS 3 Zrotation Yrotation Xrotation
							JOINT RightHand
							{
								OFFSET -3.444170 -0.000000 -0.000000
								CHANNELS 3 Zrotation Yrotation Xrotation
								JOINT RightFingerBase
								{
									OFFSET 0.000000 0.000000 0.000000
									CHANNELS 3 Zrotation Yrotation Xrotation
									JOINT RightHandIndex1
									{
										OFFSET -0.622530 -0.000000 -0.000000
										CHANNELS 3 Zrotation Yrotation Xrotation
										End Site
										{
											OFFSET 0.000000 0.000000 0.000000
										}
									}
								}
								JOINT RThumb
								{
									OFFSET 0.000000 0.000000 0.000000
									CHANNELS 3 Zrotation Yrotation Xrotation
									End Site
									{
										OFFSET 0.000000 0.000000 0.000000
									}
								}
							}
						}
					}
				}
			}
		}
	}
}
MOTION
Frames: 6
Frame Time: 0.008333
9.909108 17.831454 -27.394697 -1.607240 -26.774095 12.535947 -1.223574 2.252543 2.636972 -17.286966 -7.832577 -17.632847 1.700185 10.710231 33.226672 0.299655 4.096547 -16.130402 0.025300 -1.027500 -2.824300 -2.364863 -2.317118 2.508533 17.072570 20.071525 -30.691108 -10.908704 -17.806401 63.082785 0.850654 -7.845241 -10.846113 -0.124400 -2.274100 6.263800 -6.404472 0.922595 17.413723 0.684325 0.078237 2.699023 3.209797 -0.315947 -4.744734 -7.113681 -2.101184 -16.544407 5.577332 -1.660152 13.378279 3.141400 -0.961700 11.483200 -7.942080 -3.207193 0.232727 -72.286987 -22.758512 -2.693584 9.514911 -12.828314 -1.600608 -1.956280 -2.074875 12.305223 14.167975 23.883120 7.051300 -7.125000 0.000000 0.000000 -15.579100 56.388000 -4.425500 7.295460 3.007931 -1.135070 77.789808 -1.439994 13.295665 -12.390843 21.295682 -3.377410 0.737200 -0.683499 14.676840 -20.652718 15.131474 -6.038500 7.125000 0.000000 0.000000 4.103900 -13.360300 3.052500 
9.881883 17.813505 -27.237292 -1.409255 -26.738504 12.514948 -1.257863 2.278520 2.676084 -17.687613 -8.102039 -17.043170 1.695566 10.688412 33.246692 0.286328 4.306883 -16.664629 0.038800 -1.271800 -3.496900 -2.350773 -2.307824 2.505989 16.793042 20.263273 -31.494094 -10.748720 -17.774455 62.621140 0.630903 -6.894122 -11.515746 -0.389100 -4.005400 11.091800 -6.612372 0.783576 17.555762 0.694364 -0.151843 2.682702 3.458927 -0.438116 -4.821703 -7.208567 -2.046404 -16.483071 5.631845 -1.558825 13.287916 3.194000 -0.918200 11.417000 -7.917920 -3.236686 0.234129 -71.986422 -23.054759 -1.335269 9.743966 -13.144327 -1.681953 -1.917523 -2.165579 11.362571 13.907209 24.249126 7.024300 -7.125000 0.000000 0.000000 -16.105500 56.742000 -4.719600 7.298193 3.017339 -1.125744 77.811605 -1.475881 12.641100 -12.213933 21.037957 -3.289972 0.763918 -0.682729 15.109738 -20.929206 14.679817 -5.953500 7.125000 0.000000 0.000000 3.872000 -13.820300 2.841600 
9.852237 17.794044 -27.073535 -1.318324 -26.801917 12.452928 -1.289766 2.312958 2.731387 -18.043371 -8.076569 -16.401259 1.670913 10.641411 33.185579 0.208302 4.669632 -17.048647 0.048000 -1.413500 -3.887300 -2.335921 -2.294852 2.488669 16.619906 20.510707 -32.120408 -10.559059 -17.716893 62.056632 0.350509 -5.651486 -12.228808 -0.550000 -4.750900 13.199300 -6.698352 0.639680 17.647203 0.676143 -0.352752 2.751246 3.575914 -0.558783 -4.669100 -7.197427 -1.980567 -16.710720 5.657985 -1.459222 13.293052 3.225500 -0.867700 11.454200 -7.893209 -3.286458 0.248829 -71.459900 -23.553073 -0.052462 9.919978 -13.392716 -1.764337 -1.864924 -2.330922 10.223489 13.170439 25.171378 6.899000 -7.125000 0.000000 0.000000 -17.534300 57.587500 -5.517100 7.289735 3.033519 -1.110010 77.923541 -1.347936 11.889075 -12.063650 20.822873 -3.227813 0.750780 -0.735011 15.591555 -20.963771 15.113081 -6.148900 7.125000 0.000000 0.000000 3.872200 -13.306900 2.883700 
9.821482 17.769944 -26.902115 -1.422788 -27.143191 12.469033 -1.325328 2.352124 2.795506 -18.305353 -8.004470 -15.708471 1.634616 10.586344 33.096108 0.090423 5.192972 -17.539107 0.077200 -1.792300 -4.931900 -2.332091 -2.288942 2.468969 16.628213 20.947268 -32.753498 -10.346505 -17.650664 61.416670 0.334477 -5.696072 -12.603618 -0.339000 -3.741400 10.350300 -6.692154 0.551234 17.631955 0.670672 -0.455847 2.825020 3.610589 -0.632192 -4.459277 -6.928559 -1.791181 -17.083603 5.461048 -1.258240 13.471379 3.113900 -0.777200 11.601800 -7.846847 -3.344357 0.253250 -70.963682 -23.974741 1.017243 10.225953 -13.803408 -1.854400 -1.845010 -2.269719 9.064503 13.917702 24.269837 7.046900 -7.125000 0.000000 0.000000 -16.112800 56.795800 -4.743000 7.289344 3.017776 -1.115509 77.966543 -1.336670 11.515713 -11.970268 20.708098 -3.196970 0.726280 -0.794392 15.749205 -20.853903 15.895224 -6.433000 7.125000 0.000000 0.000000 4.000200 -12.427200 3.053300 
9.787299 17.762483 -26.723939 -1.339296 -27.323426 12.473608 -1.366589 2.391853 2.856715 -18.684118 -8.157579 -14.966628 1.581380 10.505873 32.932034 -0.028080 5.699706 -17.975773 0.100700 -2.046500 -5.634000 -2.319823 -2.293435 2.450679 16.507681 21.155522 -33.725612 -10.080479 -17.580754 60.603313 0.791043 -7.948611 -12.324866 -0.009300 0.624400 -1.715800 -6.829918 0.452213 17.664257 0.677329 -0.612855 2.823814 3.748861 -0.720411 -4.439671 -6.651528 -1.609602 -17.250631 5.254551 -1.082995 13.592437 2.981400 -0.699500 11.685400 -7.803134 -3.387195 0.251006 -70.580189 -24.238505 2.102663 10.486845 -14.156184 -1.930334 -1.855934 -2.164141 8.270485 14.977492 23.205618 7.271600 -7.125000 0.000000 0.000000 -14.300600 55.863800 -3.868300 7.292114 2.990256 -1.136520 77.932644 -1.558574 11.420854 -11.945257 20.687940 -3.184841 0.741129 -0.781098 15.513119 -20.875366 15.758678 -6.385600 7.125000 0.000000 0.000000 3.971100 -12.582800 3.018100 
9.752007 17.744030 -26.556653 -1.276295 -27.501767 12.572805 -1.405004 2.416753 2.904059 -19.007748 -8.240656 -14.341783 1.527852 10.419820 32.734702 -0.093984 5.998537 -18.263554 0.067600 -1.677400 -4.615100 -2.302360 -2.277360 2.438034 16.131682 21.657851 -34.201068 -9.881111 -17.493515 59.990688 0.178116 -5.186522 -13.457628 -0.298000 -3.510200 9.702700 -6.950980 0.387518 17.618925 0.672531 -0.714339 2.852171 3.853791 -0.788264 -4.321270 -6.420375 -1.526450 -17.508217 5.120213 -1.023955 13.619340 2.881700 -0.665100 11.745800 -7.767569 -3.441595 0.261580 -70.123692 -24.632799 3.135575 10.628221 -14.350232 -1.989909 -1.841430 -2.207762 7.379382 15.025273 23.300102 7.330400 -7.125000 0.000000 0.000000 -14.291500 55.984300 -3.907900 7.287193 2.983599 -1.141200 78.050010 -1.548543 10.861149 -11.922811 20.639753 -3.169429 0.756589 -0.766380 15.541729 -20.985194 15.451351 -6.299700 7.125000 0.000000 0.000000 3.870300 -12.914300 2.914200 
